HIERARCHY
ROOT hip
{
	OFFSET 0.000000 0.000000 0.000000 
	CHANNELS 6 Xposition Yposition Zposition Xrotation Zrotation Yrotation
	JOINT abdomen
	{
		OFFSET 0.000000 3.402643 0.000000 
		CHANNELS 3 Xrotation Zrotation Yrotation
		JOINT chest
		{
			OFFSET 0.000000 8.438565 -0.680529 
			CHANNELS 3 Xrotation Zrotation Yrotation
			JOINT neck
			{
				OFFSET 0.000000 10.207942 -0.272212 
				CHANNELS 3 Xrotation Zrotation Yrotation
				JOINT head
				{
					OFFSET 0.000000 3.130431 0.000000 
					CHANNELS 3 Xrotation Zrotation Yrotation
					End Site
					{
						OFFSET 0.000000 3.130435 0.000000 
					}
				}
			}
			JOINT lCollar
			{
				OFFSET 3.470700 6.669187 -0.816635 
				CHANNELS 3 Yrotation Zrotation Xrotation
				JOINT lShldr
				{
					OFFSET 3.198488 0.000000 0.000000 
					CHANNELS 3 Zrotation Yrotation Xrotation
					JOINT lForeArm
					{
						OFFSET 10.139888 0.000000 0.000000 
						CHANNELS 3 Yrotation Zrotation Xrotation
						JOINT lHand
						{
							OFFSET 8.370511 0.000000 0.000000 
							CHANNELS 3 Zrotation Yrotation Xrotation
							End Site
							{
								OFFSET 4.083176 0.000000 0.000000 
							}
						}
					}
				}
			}
			JOINT rCollar
			{
				OFFSET -3.470700 6.669187 -0.816635 
				CHANNELS 3 Yrotation Zrotation Xrotation
				JOINT rShldr
				{
					OFFSET -3.198488 0.000000 0.000000 
					CHANNELS 3 Zrotation Yrotation Xrotation
					JOINT rForeArm
					{
						OFFSET -10.139888 0.000000 0.000000 
						CHANNELS 3 Yrotation Zrotation Xrotation
						JOINT rHand
						{
							OFFSET -8.370511 0.000000 0.000000 
							CHANNELS 3 Zrotation Yrotation Xrotation
							End Site
							{
								OFFSET -4.083176 0.000000 0.000000 
							}
						}
					}
				}
			}
		}
	}
	JOINT lThigh
	{
		OFFSET 5.308129 -1.633274 1.361059 
		CHANNELS 3 Xrotation Zrotation Yrotation
		JOINT lShin
		{
			OFFSET -2.041588 -20.007561 0.000000 
			CHANNELS 3 Xrotation Zrotation Yrotation
			JOINT lFoot
			{
				OFFSET 0.000000 -19.190928 -1.224953 
				CHANNELS 3 Xrotation Yrotation Zrotation
				End Site
				{
					OFFSET 0.000000 -2.449906 4.627600 
				}
			}
		}
	}
	JOINT rThigh
	{
		OFFSET -5.308129 -1.633274 1.361059 
		CHANNELS 3 Xrotation Zrotation Yrotation
		JOINT rShin
		{
			OFFSET 2.041588 -20.007561 0.000000 
			CHANNELS 3 Xrotation Zrotation Yrotation
			JOINT rFoot
			{
				OFFSET 0.000000 -19.190928 -1.224953 
				CHANNELS 3 Xrotation Yrotation Zrotation
				End Site
				{
					OFFSET 0.000000 -2.449906 4.627600 
				}
			}
		}
	}
}
MOTION
Frames: 19
Frame Time: 0.033333
-15.056913 46.058556 -3.964422 -5.804340 -11.203502 133.113205 0.000000 0.000000 0.000000 4.296047 -9.397823 4.326384 29.498751 -34.556652 -2.917493 -36.080025 19.545212 29.691887 37.317139 13.476092 13.638215 -47.916168 16.967041 4.350763 -24.511414 2.781780 -23.748835 22.077587 2.640747 -5.072682 42.339386 -23.519190 25.000000 35.105026 76.213005 79.485893 -10.016515 -11.177875 -87.621788 1.357636 -9.101087 -43.027107 -17.546892 0.536320 16.387564 42.618690 -2.131691 -2.301487 -15.447118 4.167014 -7.398714 -41.223457 -10.340669 -0.183765 69.581772 3.720089 6.250822 6.617616 -6.193540 16.003828 
-14.218041 47.240467 -3.626789 -6.930975 -8.444600 142.847839 0.000000 0.000000 0.000000 8.371954 -7.449968 4.589522 28.533495 -35.160110 -2.963475 -36.421806 18.158026 26.643194 40.060146 13.338545 12.701417 -38.830318 12.421144 -1.657164 -23.309294 3.436625 -16.928158 21.376154 0.852295 -5.732946 45.000000 -23.955294 25.000000 -15.377143 76.959732 37.099449 -14.572556 -3.131058 -103.632576 -1.431665 -0.551092 -41.256145 -13.558918 1.657408 17.067335 36.820057 -0.867492 -1.714775 -10.742349 -5.926081 -6.458839 -36.037533 -9.773866 -0.323279 64.495964 5.360947 6.150090 8.563973 -0.076383 17.446367 
-13.340240 48.229565 -2.915305 -13.367436 -8.364262 157.105560 0.000000 0.000000 0.000000 6.089833 -6.147024 4.950511 28.721119 -32.243191 -2.685043 -37.377018 13.789990 21.847801 40.224628 15.467585 10.934875 -32.104958 5.632811 -5.651331 -24.117563 6.050033 -13.886234 20.048204 -0.837038 -6.002837 42.568039 -26.877510 25.000000 -36.451187 73.107292 21.328487 -18.087233 2.697781 -114.478096 -3.088234 5.647776 -39.453087 -21.159023 3.631284 16.911688 36.805866 0.099167 -1.480255 -2.006047 -17.983246 -7.253407 -38.923363 -10.282877 -0.316983 59.839348 8.046551 6.327344 10.492896 6.604678 13.963668 
-12.083653 49.049454 -2.167334 160.707306 -175.777588 -7.166587 0.000000 0.000000 0.000000 5.048409 -3.482565 5.561657 28.580908 -28.095564 -2.297321 -38.576550 10.046640 16.155252 38.598133 18.104364 9.707914 -26.497923 -2.219000 -8.405110 -26.424843 9.192159 -18.484102 22.993370 -1.548551 -5.411681 33.303967 -29.787764 25.000000 -37.539478 68.354019 23.714058 -21.771975 5.775272 -117.822823 -5.436251 8.796638 -39.013893 -30.932913 7.331533 16.645597 40.054176 -0.438510 -1.789108 8.611116 -24.733978 -22.923763 -41.428894 -8.777765 0.267201 55.692421 8.331688 6.004116 14.186357 12.067095 16.353991 
-10.679973 49.489338 -1.983781 -21.085958 1.868004 -171.550125 0.000000 0.000000 0.000000 5.595802 -0.340168 6.226380 29.829264 -23.522913 -1.917160 -40.155624 5.337502 10.223396 35.586994 21.250502 9.102856 -21.287518 -8.890985 -10.685867 -27.584549 15.911365 -16.352280 17.830383 -3.894709 -4.961181 22.959639 -27.708742 25.000000 -27.727512 59.176689 36.533966 -25.336813 4.442838 -113.093613 -8.654657 12.979337 -39.726032 -37.382641 8.711248 15.891643 42.511150 -0.748710 -1.990008 5.255640 -23.707285 -20.845392 -40.991245 -7.040349 0.770938 51.236340 6.661657 5.188468 16.046852 16.464836 14.921641 
-9.538431 49.281269 -2.218024 -19.733589 7.008873 -156.558197 0.000000 0.000000 0.000000 6.236403 2.494932 6.844985 31.785320 -18.410709 -1.513371 -40.429966 0.166466 6.048513 32.502419 25.761505 8.140793 -16.899788 -14.248178 -12.497747 -27.242298 22.228146 -18.186802 14.923929 -4.266678 -3.570845 13.638465 -24.359272 25.000000 -23.796461 47.078854 43.839088 -21.511169 -0.409728 -127.203438 -1.200881 10.117334 -35.562721 -41.825935 7.832117 14.733900 46.534443 0.539592 -1.893714 2.552948 -17.350945 -16.379826 -39.102783 -5.643664 1.093946 47.940857 3.437072 4.168882 19.902069 21.934423 13.245837 
-8.669810 48.607468 -3.007469 -13.738940 9.054324 -141.997025 0.000000 0.000000 0.000000 9.677096 5.083268 7.330505 34.367996 -13.079882 -1.135756 -40.284492 -3.718290 3.292641 30.317440 28.798307 7.873492 -9.660140 -17.377480 -15.656972 -26.997221 26.691362 -23.105625 14.138826 -4.402064 -2.285877 7.477857 -20.690874 25.000000 -21.839115 33.533112 48.461861 -19.080805 -4.969531 -130.916412 -0.287002 3.822606 -35.983459 -41.231533 6.890710 14.578630 53.191502 5.505687 -1.091327 5.342684 -15.084393 -13.024967 -35.024113 -3.378383 1.537749 51.094204 -0.915407 3.530245 16.291752 24.704645 9.196724 
-7.721556 47.232178 -3.630399 -13.118017 11.468740 -130.357468 0.000000 0.000000 0.000000 7.133285 4.680451 7.323792 34.899666 -8.757152 -0.817062 -39.083248 -5.456483 1.871223 30.577221 30.000000 4.408371 -7.971372 -19.790897 -16.280382 -23.596943 30.176704 -25.324745 11.502907 -5.989942 -1.025417 2.846747 -22.057598 25.000000 -18.418589 24.776810 52.199306 -15.943866 -5.521919 -133.961594 -3.661025 1.668514 -37.638680 -46.073952 6.406583 13.391665 61.250732 8.751273 -0.701566 6.424811 -11.884130 -10.009665 -39.422131 -4.501901 1.455453 58.364151 -1.083707 4.193419 13.879681 22.385925 14.802463 
-7.049518 45.919483 -4.385034 -10.365532 14.342408 -120.063988 0.000000 0.000000 0.000000 4.812746 6.130817 7.741940 35.286224 -6.648299 -0.669953 -39.153206 -5.827806 1.028020 31.408089 30.000000 1.939971 -5.625636 -20.331459 -17.280319 -21.433706 31.246172 -29.664307 9.359318 -7.538052 -0.262831 -1.044015 -24.952604 23.810894 -14.145251 19.031708 55.888985 -13.374690 -4.362877 -131.819321 -9.951794 1.624148 -41.246643 -48.561913 7.596912 13.179472 67.477402 13.900005 0.231775 2.601669 -9.949640 -5.054895 -42.008118 -6.659699 0.936304 64.234550 4.453866 5.951773 5.743051 16.321815 12.027684 
-6.701174 45.120876 -5.307301 -6.861958 14.877936 -110.791565 0.000000 0.000000 0.000000 4.051087 6.692374 7.904718 35.754627 -5.114299 -0.555890 -39.947021 -6.729859 1.063790 32.184708 30.000000 0.833280 -1.442529 -20.528809 -19.053261 -19.495375 32.085098 -34.250603 8.212984 -8.476957 0.356703 -3.560950 -25.941645 22.606512 -10.619515 13.871427 59.026005 -10.584882 -3.223643 -121.978409 -17.146284 1.967775 -46.884708 -46.389057 8.971067 14.064514 70.851868 18.135597 1.071184 -0.387493 -2.584910 -1.492264 -38.813820 -9.374022 -0.068172 65.331451 12.158131 7.773304 -4.017297 8.968612 8.703880 
-6.513139 44.657814 -6.349180 -4.668727 15.789910 -102.630241 0.000000 0.000000 0.000000 1.166830 5.155187 7.605310 36.852646 -2.805237 -0.396913 -40.714291 -6.071602 2.288143 32.105099 30.000000 -0.061244 1.247892 -21.329779 -20.132797 -16.118443 32.703793 -39.833797 6.738839 -10.865062 0.514520 -5.260076 -26.812393 21.723753 -5.872847 11.845499 62.938595 -10.843978 0.398898 -101.564453 -21.609776 4.418903 -52.770161 -43.160042 10.193295 15.163554 71.805946 20.529953 1.613886 -0.943730 1.758018 0.358514 -35.815338 -9.491335 -0.235711 63.290276 16.923870 8.687627 -13.050609 -0.557728 5.542005 
-6.602110 44.763268 -7.333621 -1.876224 14.504265 -94.571320 0.000000 0.000000 0.000000 1.331389 4.012592 7.329965 35.582962 -1.983143 -0.324762 -40.325359 -4.671535 3.620086 32.773785 30.000000 -0.138684 6.267604 -23.612688 -22.056833 -11.615981 32.867962 -47.909660 4.239146 -11.750108 0.578337 -6.379719 -26.930435 21.171137 -2.621152 8.532524 66.022087 -8.242803 2.243239 -90.289352 -24.518921 10.323366 -54.298855 -36.467274 10.229700 16.533335 71.594193 22.275637 2.024572 -3.953242 2.634746 0.099199 -32.742802 -6.493595 0.490666 61.127632 16.552807 8.417027 -15.966896 -10.636302 6.046756 
-6.864111 45.286510 -8.225739 0.805280 14.031873 -84.393303 0.000000 0.000000 0.000000 -0.234629 2.665993 7.059411 34.718632 0.496138 -0.140197 -40.558960 -5.766729 4.404162 30.977009 30.000000 0.604972 8.970702 -29.570963 -23.067167 -3.892457 33.272812 -59.530514 2.580015 -13.008029 0.340792 -11.925643 -25.613108 18.793707 -1.229322 7.974686 67.284096 -4.788239 4.670975 -89.492561 -27.089254 15.458723 -54.059803 -32.362427 8.945041 16.889931 70.859467 20.813660 1.703030 -5.881727 3.484344 4.926821 -31.074717 -4.979496 0.882587 58.650513 16.611090 8.168618 -12.027831 -19.458548 12.631039 
-7.342731 46.250801 -9.090122 3.011489 12.551554 -72.722557 0.000000 0.000000 0.000000 -1.943359 -0.009760 6.484704 36.404259 5.584432 0.222813 -40.538029 -7.590491 5.049885 26.963533 30.000000 2.236732 11.517241 -39.270679 -24.464743 3.698531 32.426182 -76.829041 4.430003 -14.174796 -1.040639 -17.684771 -21.601753 17.352171 -2.045595 6.833899 66.749649 1.805340 6.764212 -102.447716 -25.373383 19.681843 -49.029343 -26.394218 7.606195 17.435184 66.613152 16.847818 0.911344 2.221472 2.640388 8.661262 -27.929161 -4.579856 0.826343 54.951050 16.319952 7.746477 -0.575524 -24.384546 24.890173 
-7.744659 47.388168 -9.773232 5.116836 11.177115 -61.007477 0.000000 0.000000 0.000000 -3.314074 -2.642065 5.924259 37.649300 10.339326 0.572017 -39.135189 -8.062513 5.677819 21.135176 30.000000 6.314187 19.407652 -48.299702 -28.839443 7.874412 29.603750 -92.534462 7.570950 -13.893415 -2.806527 -23.274408 -19.034679 16.060366 -3.479805 5.472270 65.704483 7.221227 8.694792 -109.012329 -24.219114 20.625332 -45.666882 -22.517328 6.580565 17.645376 63.651989 11.714130 -0.122705 7.515861 5.098789 4.799158 -27.162897 -4.882048 0.712390 53.779102 15.626494 7.476007 8.376291 -26.606413 30.572617 
-7.990142 48.490688 -10.344052 7.804879 9.144476 -49.932507 0.000000 0.000000 0.000000 -3.699346 -3.751954 5.691109 37.387115 14.213671 0.884086 -39.294914 -10.408827 5.670517 12.913401 30.000000 12.931490 29.795696 -54.813667 -34.997673 9.669481 27.336857 -94.030495 6.997002 -15.174309 -3.954282 -28.436277 -17.198124 14.958055 -6.249829 3.261370 63.530724 11.422161 10.721807 -112.371674 -23.848438 20.693552 -43.292198 -19.408665 6.675601 18.051874 61.887817 6.010795 -1.343330 2.680517 1.967690 9.755938 -29.427320 -4.325517 0.996553 56.541790 12.128960 6.941616 21.953993 -19.429474 33.631348 
-8.189162 49.353443 -10.841495 9.945177 6.387749 -39.604416 0.000000 0.000000 0.000000 -3.310149 -4.309232 5.570560 36.450134 17.122305 1.125776 -39.611313 -12.738458 6.145331 4.238266 30.000000 20.006575 42.684032 -61.151741 -43.882195 10.845147 22.538532 -93.318825 8.525373 -20.055950 -5.961623 -32.520378 -15.370228 14.495272 -10.542646 0.191574 60.007965 16.804996 10.123473 -128.272614 -23.323999 15.786212 -38.906628 -17.649490 6.371485 18.150707 60.484161 1.490263 -2.275205 3.452564 3.330635 -3.839319 -32.765163 -2.763195 1.627394 61.889812 5.713813 6.006701 29.761398 -7.032440 23.898298 
-8.583282 49.860416 -11.144438 10.246794 2.806155 -28.935953 0.000000 0.000000 0.000000 -1.373437 -5.467188 5.296300 35.053612 21.461063 1.508009 -38.977364 -14.918716 5.685813 -9.039873 30.000000 25.000000 60.027199 -61.959991 -52.879906 10.786244 13.039948 -99.776176 11.502706 -22.673830 -8.159546 -36.620693 -12.442873 15.080280 -14.548633 -2.987818 56.631359 18.290916 7.244256 -143.346939 -29.125303 13.559869 -37.402424 -14.134824 5.990657 18.367939 56.752834 -3.274543 -3.229808 3.537385 2.741351 -9.952495 -31.980776 -0.624516 2.198111 66.035919 -2.430143 4.617904 29.426237 -0.766560 8.079814 
-9.008761 49.882572 -11.352724 11.592257 0.507021 -17.210367 0.000000 0.000000 0.000000 -1.781684 -7.213345 4.930274 33.760288 26.322044 1.958016 -37.865913 -17.516155 4.697131 -23.439157 30.000000 25.000000 75.200706 -60.003136 -57.628246 7.951027 2.119372 -109.098595 12.233572 -25.453566 -9.306465 -40.997070 -9.806950 15.888465 -20.243040 -5.524154 51.944969 17.282116 8.097566 -145.956223 -27.491919 13.711519 -33.835205 -13.990175 5.357801 18.194542 54.466972 -8.334343 -4.302612 2.703418 5.746222 -9.611908 -30.649351 0.712743 2.553889 69.298866 -8.940316 3.534446 29.511677 -8.757774 19.024885 
